<svg width="24" height="22" viewBox="0 0 44 42" fill="currentColor" xmlns="http://www.w3.org/2000/svg">
	<path d="M8.94694 3.45843C9.11161 2.13672 9.54174 0.981783 10.16 0L3.82238 0.657629C1.56654 1.08872 -0.138774 2.88052 0.00891234 5.19774L3.31186 37.9891C3.74153 40.2525 5.80936 41.9096 7.83693 41.8153L8.55367 41.7409C7.05071 40.0923 6.15112 37.8822 6.15112 35.597V35.4023L8.93681 3.53979L8.94694 3.45843Z" fill="currentColor"></path>
	<path d="M21.9072 15.6475C24.195 15.6475 26.0496 13.7868 26.0496 11.4914C26.0496 9.19599 24.195 7.33521 21.9072 7.33521C19.6194 7.33521 17.7648 9.19599 17.7648 11.4914C17.7648 13.7868 19.6194 15.6475 21.9072 15.6475Z" fill="currentColor"></path>
	<path fill-rule="evenodd" clip-rule="evenodd" d="M10.5847 35.597C10.5847 37.8136 12.2417 39.7532 14.1748 40.0302L36.8199 41.9698C39.0291 42.2469 40.9623 40.5844 41.2384 38.3678L44 6.78099C44 4.56437 42.6192 2.62483 40.4099 2.34775L17.7649 0.408213C15.5556 0.408213 13.6225 1.7936 13.3463 4.01022L10.5847 35.597ZM14.1276 25.0195L19.0819 21.181C19.5875 20.6718 20.5987 20.9264 21.1043 21.4357L25.6547 27.0372C25.9074 27.2918 26.1602 27.5465 26.6658 27.5465C27.1714 27.5465 27.4242 27.5465 27.677 27.2918C28.4354 26.7826 28.4354 25.7641 27.9298 25.2549L26.413 23.4726C25.9074 22.9634 25.9074 22.1995 26.413 21.9449L33.4913 15.8341C33.9969 15.3248 35.0081 15.5795 35.5137 16.0887L40.0622 21.8756L41.3904 6.68388C41.3558 5.59007 40.735 5.04421 40.1234 4.94944L17.6707 3.02637C16.5774 3.06031 16.0326 3.68511 15.9391 4.29988L14.1276 25.0195Z" fill="currentColor"></path>
</svg>
